<?xml version="1.0" standalone="no"?><!DOCTYPE svg PUBLIC "-//W3C//DTD SVG 1.1//EN" "http://www.w3.org/Graphics/SVG/1.1/DTD/svg11.dtd"><svg t="1729495493991" class="icon" viewBox="0 0 1024 1024" version="1.1" xmlns="http://www.w3.org/2000/svg" p-id="4694" xmlns:xlink="http://www.w3.org/1999/xlink" width="200" height="200"><path d="M161.472 508.288l153.6-92.8c25.728-15.488 38.592-23.296 47.488-33.92 38.464-46.08 4.608-114.24 10.368-167.872 5.888-55.488 59.264-131.392 113.024-154.88 16.576-7.296 35.52-7.296 52.096 0 53.76 23.488 107.072 99.392 113.024 154.88 5.76 53.632-28.16 121.728 10.368 167.872 8.896 10.624 21.76 18.432 47.488 33.92l153.6 92.8c46.976 28.352 65.472 58.624 65.472 115.584 0 31.04-13.824 39.36-41.728 33.024l-269.248-61.12-12.096 104.96c-4.352 38.08-6.528 57.088-0.192 74.56 14.848 40.832 65.28 74.24 96 103.936 17.024 16.448 35.584 63.616 16.192 85.12-11.968 13.184-31.424 2.432-44.8-2.688l-128.896-49.792c-15.424-5.952-23.168-8.96-31.232-8.96-8.128 0-15.808 3.008-31.232 8.96l-128.896 49.792c-13.376 5.12-32.832 15.872-44.8 2.624-19.392-21.44-0.832-68.608 16.192-85.056 30.72-29.696 81.152-63.104 96-103.936 6.4-17.472 4.16-36.48-0.256-74.56l-12.096-104.96-269.184 61.12c-27.904 6.336-41.728-1.984-41.728-33.024 0-56.96 18.56-87.232 65.472-115.584z" fill="#8a8a8a" p-id="4695"></path></svg>