<?xml version="1.0" standalone="no"?><!DOCTYPE svg PUBLIC "-//W3C//DTD SVG 1.1//EN" "http://www.w3.org/Graphics/SVG/1.1/DTD/svg11.dtd"><svg t="1729752725680" class="icon" viewBox="0 0 1024 1024" version="1.1" xmlns="http://www.w3.org/2000/svg" p-id="4306" xmlns:xlink="http://www.w3.org/1999/xlink" width="200" height="200"><path d="M728.277333 487.978667c-4.266667-0.554667-424.021333-0.341333-428.970666 0.512a153.984 153.984 0 0 0-128.256 162.986666c0.512 7.466667 1.066667 122.922667 1.066666 122.922667 0 17.322667 13.952 31.274667 31.104 31.274667H402.773333a39.082667 39.082667 0 0 0 16.341334-3.669334 39.808 39.808 0 0 0 11.946666-8.874666 34.986667 34.986667 0 0 0 5.376-7.68 36.010667 36.010667 0 0 0 3.754667-10.496 38.912 38.912 0 0 0 0.768-7.466667c0-16.981333 13.610667-30.549333 30.549333-30.549333 26.325333 0 65.365333 0.170667 91.861334 0a29.44 29.44 0 0 1 11.690666 2.304 35.498667 35.498667 0 0 1 6.528 3.712 27.392 27.392 0 0 1 5.418667 5.12 30.421333 30.421333 0 0 1 6.997333 21.333333 39.04 39.04 0 0 0 4.437334 16.085333 36.266667 36.266667 0 0 0 6.656 9.002667 32.341333 32.341333 0 0 0 5.802666 4.778667 47.061333 47.061333 0 0 0 4.864 2.773333 38.656 38.656 0 0 0 16.341334 3.626667h204.928a20.010667 20.010667 0 0 0 10.666666-2.944 16.128 16.128 0 0 0 3.242667-2.432 18.944 18.944 0 0 0 3.84-4.693334 18.005333 18.005333 0 0 0 2.048-4.608 23.466667 23.466667 0 0 0 0.853333-5.973333s0.725333-130.858667 0.938667-133.674667a154.24 154.24 0 0 0-130.389333-163.413333z m-65.024-362.837334h-6.528a10.709333 10.709333 0 0 0-10.624 9.557334l-8.490666 243.285333a10.837333 10.837333 0 0 0 10.624 11.861333h23.893333A10.666667 10.666667 0 0 0 682.666667 377.984l-8.832-243.285333a9.258667 9.258667 0 0 0-0.512-2.389334 9.088 9.088 0 0 0-1.28-2.602666 8.021333 8.021333 0 0 0-1.28-1.493334 7.893333 7.893333 0 0 0-1.109334-0.938666 17.536 17.536 0 0 0-1.706666-1.024 9.514667 9.514667 0 0 0-2.730667-0.938667 9.173333 9.173333 0 0 0-1.962667-0.170667z m-299.946666 0H356.693333a10.581333 10.581333 0 0 0-10.624 9.557334l-8.448 243.285333c-0.554667 6.4 4.224 11.861333 10.581334 11.861333h23.893333c6.314667 0 11.093333-5.504 10.538667-11.861333l-8.832-243.285333a10.666667 10.666667 0 0 0-10.581334-9.557334z m337.92 344.448h-81.962667a16.597333 16.597333 0 0 1-2.389333-0.170666l-0.810667-0.170667a17.066667 17.066667 0 0 1-6.485333-2.858667 17.749333 17.749333 0 0 1-1.834667-1.578666l-0.554667-0.554667a11.776 11.776 0 0 1-1.024-1.28l-0.426666-0.64a12.032 12.032 0 0 1-1.194667-2.090667 27.093333 27.093333 0 0 1-1.066667-2.986666 15.744 15.744 0 0 1-0.426666-3.157334l-0.042667-0.810666v-22.954667a16.213333 16.213333 0 0 1 16.213333-16.085333h82.005334c8.832 0 16.085333 7.253333 16.085333 16.085333v22.954667a16.213333 16.213333 0 0 1-16.085333 16.298666z m-299.946667-0.554666H319.061333a16.469333 16.469333 0 0 1-8.96-2.773334 18.432 18.432 0 0 1-3.498666-3.2 16.128 16.128 0 0 1-3.626667-10.282666v-22.997334c0-8.832 7.253333-16.085333 16.085333-16.085333h82.133334c8.832 0 16.085333 7.253333 16.085333 16.085333v23.04a16.213333 16.213333 0 0 1-16.085333 16.213334z m-75.477333 224.554666a51.114667 51.114667 0 0 0 22.272-5.12 50.56 50.56 0 0 0 14.506666-10.325333 50.944 50.944 0 0 0 11.264-16.938667 52.224 52.224 0 0 0 3.925334-19.925333 52.053333 52.053333 0 0 0-37.461334-49.706667c-2.816-0.853333-5.504 1.408-5.504 4.437334v40.32a3.498667 3.498667 0 0 1 0 0.64 4.864 4.864 0 0 1-0.213333 0.64l-0.042667 0.213333a4.693333 4.693333 0 0 1-0.170666 0.426667l-0.128 0.213333a5.546667 5.546667 0 0 1-0.213334 0.384l-0.128 0.170667-0.128 0.170666a3.584 3.584 0 0 1-0.469333 0.512 3.285333 3.285333 0 0 1-0.554667 0.426667 3.498667 3.498667 0 0 1-0.554666 0.298667 3.2 3.2 0 0 1-0.213334 0.085333l-0.213333 0.085333-0.213333 0.085334a3.754667 3.754667 0 0 1-0.426667 0.128h-0.213333l-0.256 0.085333H318.634667l-0.213334-0.042667-0.213333-0.042666-0.213333-0.042667-0.213334-0.085333a3.797333 3.797333 0 0 1-0.213333-0.085334l-0.213333-0.042666-0.213334-0.128-0.213333-0.085334-0.170667-0.128a4.48 4.48 0 0 1-0.213333-0.128L316.373333 640l-0.170666-0.128a3.413333 3.413333 0 0 1-0.170667-0.128l-0.170667-0.170667a2.56 2.56 0 0 1-0.128-0.170666l-0.170666-0.170667a4.181333 4.181333 0 0 1-0.128-0.170667l-0.128-0.170666a4.437333 4.437333 0 0 1-0.128-0.213334l-0.128-0.170666a4.864 4.864 0 0 1-0.554667-2.133334v-39.808c0-2.986667-2.816-5.290667-5.632-4.437333a60.288 60.288 0 0 0-7.466667 3.2 56.405333 56.405333 0 0 0-10.069333 6.826667 50.944 50.944 0 0 0-15.402667 23.466666 56.106667 56.106667 0 0 0-2.261333 11.946667 53.248 53.248 0 0 0 11.733333 37.162667 55.04 55.04 0 0 0 11.392 10.24 54.314667 54.314667 0 0 0 16.341334 7.168 50.048 50.048 0 0 0 12.672 1.493333z m210.602666-90.325333h-31.104a12.629333 12.629333 0 0 1-12.544-12.757333v-30.933334c0-7.082667 5.674667-12.714667 12.544-12.714666h31.701334a9.941333 9.941333 0 0 1 1.28 0.128l0.597333 0.085333a14.08 14.08 0 0 1 4.053333 1.578667 11.093333 11.093333 0 0 1 2.474667 1.92 21.546667 21.546667 0 0 1 1.578667 1.92 11.136 11.136 0 0 1 0.64 1.066666l0.298666 0.554667a11.093333 11.093333 0 0 1 0.938667 2.986667 15.36 15.36 0 0 1 0.256 2.474666v31.573334l-0.042667 0.597333a15.317333 15.317333 0 0 1-0.341333 1.877333l-0.170667 0.597334a13.738667 13.738667 0 0 1-1.28 2.858666l-0.298666 0.512a18.645333 18.645333 0 0 1-1.578667 1.92 11.008 11.008 0 0 1-2.474667 1.92 13.568 13.568 0 0 1-4.693333 1.706667 14.592 14.592 0 0 1-1.834667 0.128z m0 93.866667h-31.104a9.813333 9.813333 0 0 1-1.834666-0.128 10.026667 10.026667 0 0 1-2.389334-0.597334 13.44 13.44 0 0 1-0.554666-0.256l-0.597334-0.213333a21.802667 21.802667 0 0 1-2.090666-1.28 10.581333 10.581333 0 0 1-0.469334-0.426667 14.208 14.208 0 0 1-0.896-0.853333c-0.170667-0.085333-0.298667-0.213333-0.426666-0.384l-0.426667-0.426667a13.568 13.568 0 0 1-0.725333-1.024l-0.341334-0.512a13.226667 13.226667 0 0 1-0.298666-0.554666l-0.298667-0.554667-0.213333-0.554667a9.301333 9.301333 0 0 1-0.256-0.554666l-0.170667-0.597334a13.482667 13.482667 0 0 1-0.170667-0.597333l-0.128-0.597333a9.472 9.472 0 0 1-0.256-1.834667v-31.744a14.762667 14.762667 0 0 1 0.256-2.432l0.128-0.597333a13.482667 13.482667 0 0 1 0.170667-0.597334l0.170667-0.597333a9.301333 9.301333 0 0 1 0.469333-1.109333l0.298667-0.554667a13.226667 13.226667 0 0 1 1.749333-2.517333l0.426667-0.426667a8.405333 8.405333 0 0 1 0.426666-0.426667l0.512-0.426666a10.581333 10.581333 0 0 1 2.048-1.365334l0.512-0.256 0.597334-0.256 0.554666-0.213333a13.226667 13.226667 0 0 1 3.626667-0.725333h31.701333c7.04 0 12.714667 5.632 12.714667 12.501333v31.146667a12.629333 12.629333 0 0 1-12.714667 12.544z m-211.498666-136.832a80.426667 80.426667 0 0 1 80.768 80.256 80.512 80.512 0 1 1-80.768-80.256z m-92.928 180.48c0.554667 0.426667 1.066667 0.682667 1.792 1.109333h-1.066667l-0.725333-1.066667z m384.981333-117.034667c0-5.973333 4.778667-10.794667 10.794667-10.794667h39.210666a10.837333 10.837333 0 0 0 10.752-10.752v-36.608c0-6.016 4.778667-10.794667 10.794667-10.794666h33.237333c5.802667 0 10.752 4.778667 10.752 10.794666v36.608c0 5.973333 4.778667 10.752 10.794667 10.752h40.96c4.949333 0 9.002667 4.053333 9.002667 9.045334v34.986666a7.296 7.296 0 0 1-0.085334 1.578667 11.221333 11.221333 0 0 1-0.682666 2.56l-0.213334 0.469333a9.984 9.984 0 0 1-1.792 2.645334l-0.341333 0.426666a10.368 10.368 0 0 1-2.56 1.834667l-0.426667 0.256-0.512 0.213333a16.981333 16.981333 0 0 1-2.048 0.597334 10.368 10.368 0 0 1-0.512 0.085333l-0.512 0.085333a10.666667 10.666667 0 0 1-0.554666 0h-39.765334a10.794667 10.794667 0 0 0-3.626666 0.64l-0.469334 0.213334a9.813333 9.813333 0 0 0-2.304 1.28 10.069333 10.069333 0 0 0-2.56 2.688 7.936 7.936 0 0 0-0.768 1.408 16.469333 16.469333 0 0 0-0.213333 0.426666l-0.213333 0.512a10.026667 10.026667 0 0 0-0.597334 3.114667v37.162667a10.965333 10.965333 0 0 1-10.752 10.752h-33.237333a21.205333 21.205333 0 0 1-1.578667-0.128l-0.512-0.085334a12.586667 12.586667 0 0 1-0.512-0.128l-0.512-0.128a13.866667 13.866667 0 0 1-1.962666-0.810666l-0.426667-0.256a11.52 11.52 0 0 1-2.474667-2.005334l-0.341333-0.426666a15.36 15.36 0 0 1-0.341333-0.426667l-0.298667-0.426667-0.256-0.426666a25.130667 25.130667 0 0 1-0.938667-1.92 9.813333 9.813333 0 0 1-0.597333-3.072v-37.12a10.837333 10.837333 0 0 0-10.794667-10.794667H627.2l-0.512-0.042667-0.512-0.085333a10.197333 10.197333 0 0 1-1.066667-0.213333l-0.512-0.128a11.562667 11.562667 0 0 1-0.512-0.170667l-0.469333-0.170667a16.469333 16.469333 0 0 1-1.877333-0.981333 15.573333 15.573333 0 0 1-1.621334-1.365333 30.464 30.464 0 0 1-0.725333-0.768l-0.341333-0.426667a9.898667 9.898667 0 0 1-0.853334-1.322667l-0.213333-0.469333-0.213333-0.512a16.981333 16.981333 0 0 1-0.597334-2.005333l-0.085333-0.554667a21.930667 21.930667 0 0 1-0.128-1.578667v-33.237333z" p-id="4307"></path></svg>